<mxfile host="65bd71144e">
    <diagram id="okDsG4l4mjCaYn3mvxfR" name="Page-1">
        <mxGraphModel dx="1185" dy="898" grid="1" gridSize="10" guides="1" tooltips="1" connect="1" arrows="1" fold="1" page="1" pageScale="1" pageWidth="827" pageHeight="1169" math="0" shadow="0">
            <root>
                <mxCell id="0"/>
                <mxCell id="1" parent="0"/>
                <mxCell id="3" value="" style="shape=curlyBracket;whiteSpace=wrap;html=1;rounded=1;fontFamily=Lucida Console;fontSize=27;rotation=-90;strokeWidth=2;" parent="1" vertex="1">
                    <mxGeometry x="202.5" y="372.5" width="20" height="125" as="geometry"/>
                </mxCell>
                <mxCell id="4" value="" style="shape=curlyBracket;whiteSpace=wrap;html=1;rounded=1;fontFamily=Lucida Console;fontSize=27;rotation=-90;strokeWidth=2;" parent="1" vertex="1">
                    <mxGeometry x="363" y="372.5" width="14" height="120" as="geometry"/>
                </mxCell>
                <mxCell id="5" value="" style="shape=curlyBracket;whiteSpace=wrap;html=1;rounded=1;fontFamily=Lucida Console;fontSize=27;rotation=-90;strokeWidth=2;" parent="1" vertex="1">
                    <mxGeometry x="507" y="385" width="20" height="100" as="geometry"/>
                </mxCell>
                <mxCell id="6" value="service" style="text;align=center;verticalAlign=middle;resizable=0;points=[];autosize=1;strokeColor=none;fillColor=none;fontSize=20;fontFamily=Times New Roman;spacing=2;spacingBottom=0;html=1;" parent="1" vertex="1">
                    <mxGeometry x="172.5" y="440" width="80" height="30" as="geometry"/>
                </mxCell>
                <mxCell id="7" value="environment&lt;br&gt;" style="text;align=center;verticalAlign=middle;resizable=0;points=[];autosize=1;strokeColor=none;fillColor=none;fontSize=20;fontFamily=Times New Roman;spacing=2;spacingBottom=0;html=1;" parent="1" vertex="1">
                    <mxGeometry x="310" y="440" width="120" height="30" as="geometry"/>
                </mxCell>
                <mxCell id="9" value="domain" style="text;align=center;verticalAlign=middle;resizable=0;points=[];autosize=1;strokeColor=none;fillColor=none;fontSize=20;fontFamily=Times New Roman;spacing=2;spacingBottom=0;html=1;" parent="1" vertex="1">
                    <mxGeometry x="477" y="440" width="80" height="30" as="geometry"/>
                </mxCell>
                <mxCell id="10" value="" style="shape=curlyBracket;whiteSpace=wrap;html=1;rounded=1;fontFamily=Times New Roman;fontSize=20;rotation=90;strokeWidth=2;" parent="1" vertex="1">
                    <mxGeometry x="427.5" y="227.5" width="20" height="265" as="geometry"/>
                </mxCell>
                <mxCell id="11" value="namespace" style="text;html=1;align=center;verticalAlign=middle;resizable=0;points=[];autosize=1;strokeColor=none;fillColor=none;fontSize=20;fontFamily=Times New Roman;" parent="1" vertex="1">
                    <mxGeometry x="387.5" y="320" width="100" height="30" as="geometry"/>
                </mxCell>
                <mxCell id="12" value="backend" style="text;align=left;verticalAlign=middle;resizable=0;points=[];autosize=1;strokeColor=none;fillColor=none;fontFamily=Courier New;fontStyle=0;fontSize=28;fontColor=default;labelBackgroundColor=none;labelBorderColor=none;html=1;rounded=0;" vertex="1" parent="1">
                    <mxGeometry x="150" y="380" width="130" height="40" as="geometry"/>
                </mxCell>
                <mxCell id="13" value="internal" style="text;align=left;verticalAlign=middle;resizable=0;points=[];autosize=1;strokeColor=none;fillColor=none;fontFamily=Courier New;fontStyle=0;fontSize=28;fontColor=default;labelBackgroundColor=none;labelBorderColor=none;html=1;rounded=0;" vertex="1" parent="1">
                    <mxGeometry x="300" y="380" width="150" height="40" as="geometry"/>
                </mxCell>
                <mxCell id="14" value="scubic" style="text;fontSize=28;fontFamily=Courier New;align=left;fontStyle=0;verticalAlign=middle;fontColor=default;labelBackgroundColor=none;labelBorderColor=none;whiteSpace=wrap;html=1;fillColor=none;rounded=0;strokeColor=none;" vertex="1" parent="1">
                    <mxGeometry x="460" y="375" width="120" height="50" as="geometry"/>
                </mxCell>
                <mxCell id="15" value="." style="text;align=left;verticalAlign=middle;resizable=0;points=[];autosize=1;strokeColor=none;fillColor=none;fontSize=28;fontFamily=Courier New;fontStyle=0;fontColor=default;labelBackgroundColor=none;labelBorderColor=none;html=1;rounded=0;" vertex="1" parent="1">
                    <mxGeometry x="280" y="380" width="30" height="40" as="geometry"/>
                </mxCell>
                <mxCell id="17" value="." style="text;align=left;verticalAlign=middle;resizable=0;points=[];autosize=1;strokeColor=none;fillColor=none;fontSize=28;fontFamily=Courier New;fontStyle=0;fontColor=default;labelBackgroundColor=none;labelBorderColor=none;html=1;rounded=0;" vertex="1" parent="1">
                    <mxGeometry x="440" y="380" width="30" height="40" as="geometry"/>
                </mxCell>
                <mxCell id="18" value="backend" style="text;align=left;verticalAlign=middle;resizable=0;points=[];autosize=1;strokeColor=none;fillColor=none;fontFamily=Courier New;fontStyle=0;fontSize=28;fontColor=default;labelBackgroundColor=none;labelBorderColor=none;html=1;rounded=0;" vertex="1" parent="1">
                    <mxGeometry x="150" y="380" width="130" height="40" as="geometry"/>
                </mxCell>
                <mxCell id="19" value="." style="text;align=left;verticalAlign=middle;resizable=0;points=[];autosize=1;strokeColor=none;fillColor=none;fontSize=28;fontFamily=Courier New;fontStyle=0;fontColor=default;labelBackgroundColor=none;labelBorderColor=none;html=1;rounded=0;" vertex="1" parent="1">
                    <mxGeometry x="280" y="380" width="30" height="40" as="geometry"/>
                </mxCell>
                <mxCell id="20" value="internal" style="text;align=left;verticalAlign=middle;resizable=0;points=[];autosize=1;strokeColor=none;fillColor=none;fontFamily=Courier New;fontStyle=0;fontSize=28;fontColor=default;labelBackgroundColor=none;labelBorderColor=none;html=1;rounded=0;" vertex="1" parent="1">
                    <mxGeometry x="300" y="380" width="150" height="40" as="geometry"/>
                </mxCell>
            </root>
        </mxGraphModel>
    </diagram>
</mxfile>